<svg xmlns="http://www.w3.org/2000/svg" xmlns:xlink="http://www.w3.org/1999/xlink"><defs><clipPath id="a"><path d="M5.012 16.09H67v39.75H5.012Zm0 0"/></clipPath><clipPath id="403971a578"><path d="M 56 33 L 62.371094 33 L 62.371094 42 L 56 42 Z M 56 33 " clip-rule="nonzero"/></clipPath><clipPath id="8733d39d0f"><path d="M 9.871094 9.871094 L 59 9.871094 L 59 62.371094 L 9.871094 62.371094 Z M 9.871094 9.871094 " clip-rule="nonzero"/></clipPath><clipPath id="a"><path d="M9.668 9.668h52.5v52.5h-52.5Zm0 0"/></clipPath><clipPath id="a"><path d="M9.668 9.668h52.5v52.5h-52.5Zm0 0"/></clipPath><clipPath id="bf2c50aa5f"><path d="M 11.128906 32 L 60.628906 32 L 60.628906 62.722656 L 11.128906 62.722656 Z M 11.128906 32 " clip-rule="nonzero"/></clipPath><clipPath id="73e3772c37"><path d="M 11.128906 14 L 60.628906 14 L 60.628906 30 L 11.128906 30 Z M 11.128906 14 " clip-rule="nonzero"/></clipPath><clipPath id="0fcafeb37a"><path d="M 22 9.472656 L 27 9.472656 L 27 22 L 22 22 Z M 22 9.472656 " clip-rule="nonzero"/></clipPath><clipPath id="e640f1980a"><path d="M 45 9.472656 L 50 9.472656 L 50 22 L 45 22 Z M 45 9.472656 " clip-rule="nonzero"/></clipPath><clipPath id="f361395f4f"><path d="M 11.957031 6.808594 L 59.957031 6.808594 L 59.957031 65.308594 L 11.957031 65.308594 Z M 11.957031 6.808594 " clip-rule="nonzero"/></clipPath></defs><symbol id="acres" viewBox="0 0 72 72"><g clip-path="url(#a)"><path fill="currentColor" d="M66.879 51.668a.83.83 0 0 0-.067-.227l-7.851-16.664a.87.87 0 0 0-.785-.5h-14.86c1.274-2.722 1.887-5.234 1.825-7.488-.125-4.598-1.828-7.762-5.059-9.398a9.068 9.068 0 0 0-8.172 0c-3.23 1.636-4.933 4.8-5.058 9.398-.063 2.254.55 4.766 1.824 7.488h-14.86c-.336 0-.644.2-.785.5L5.18 51.441a1.009 1.009 0 0 0-.07.227.903.903 0 0 0-.063.324v3.04c0 .48.387.87.867.87h60.164c.477 0 .867-.39.867-.87v-3.04a.83.83 0 0 0-.066-.324Zm-42.68-9.387h-5.988l2.3-6.445h5.774Zm3.723-6.445h1.543l.105.187c.207.372.414.735.63 1.09.03.051.062.11.093.16.246.399.492.786.734 1.157.063.093.125.183.184.273.21.313.418.613.625.906l.117.164c.242.336.477.653.703.95.012.02.032.043.043.062-.023.004-.047.012-.07.016l-.379.094-.121.035a6.527 6.527 0 0 0-.469.148c-.031.008-.062.024-.09.031-.133.051-.258.102-.379.157a4.619 4.619 0 0 0-.531.27 3.728 3.728 0 0 0-.367.27c-.027.022-.059.046-.086.073a1.748 1.748 0 0 0-.281.309l-.02.03a1.446 1.446 0 0 0-.199.427c-.039.132-.066.27-.066.414 0 1.804 3.191 2.613 6.355 2.613 3.164 0 6.356-.809 6.356-2.613 0-.145-.028-.282-.067-.414a1.624 1.624 0 0 0-.2-.426c-.007-.012-.01-.02-.019-.031a1.912 1.912 0 0 0-.28-.31c-.028-.026-.06-.05-.087-.073a3.728 3.728 0 0 0-.367-.27 4.21 4.21 0 0 0-.531-.27 8.498 8.498 0 0 0-.38-.156c-.03-.007-.058-.023-.089-.03a7.215 7.215 0 0 0-.469-.15l-.12-.034-.38-.094c-.023-.004-.047-.012-.07-.016a.596.596 0 0 1 .043-.062c.227-.297.46-.614.703-.95.04-.054.078-.109.117-.164.207-.293.414-.593.625-.906.059-.09.121-.18.18-.273.246-.371.492-.758.738-1.157.031-.05.063-.109.094-.16.215-.355.422-.718.629-1.09l.105-.187h1.543l4.953 15.289H22.97Zm8.074 8.223c.336 0 .664-.141.895-.391.05-.059.125-.14.214-.238l.083-.094.242-.273.14-.165c.086-.101.176-.207.278-.324l.191-.226a6.21 6.21 0 0 1 .152-.18c.047.004.094.012.137.02.09.011.172.027.254.042.11.02.215.04.316.063.079.016.149.035.22.05a9.1 9.1 0 0 1 .273.071c.062.02.125.035.183.055.082.023.16.05.235.074.046.02.101.035.144.055.07.027.133.05.195.078.04.015.079.035.114.05.058.028.105.055.156.079.023.015.055.03.078.047.05.027.086.054.125.078.012.011.031.023.047.035a.614.614 0 0 1 .102.097c-.278.34-1.903 1.051-4.774 1.051s-4.496-.71-4.773-1.05a.614.614 0 0 1 .101-.098l.047-.035c.035-.024.074-.051.121-.078l.082-.047c.051-.024.098-.051.156-.078.036-.016.075-.036.114-.051.062-.028.125-.051.191-.078.047-.02.098-.035.149-.055.074-.023.152-.05.234-.074.059-.02.121-.035.184-.055a9.1 9.1 0 0 1 .273-.07c.07-.016.14-.035.219-.051.101-.023.207-.043.316-.063.082-.015.164-.03.254-.042a1.44 1.44 0 0 1 .137-.02c.054.062.101.117.152.18.067.078.129.156.192.23.101.113.187.219.277.32.047.055.094.114.14.164.09.102.165.184.235.266.031.035.066.074.094.102.086.101.16.18.21.238.231.25.555.39.895.39Zm14.664 7.066L48.3 43.84h5.77l2.598 7.285Zm7.664 0-2.601-7.285h5.785l3.43 7.285Zm2.45-8.844H47.792l-2.086-6.445h12.031Zm-28.16-23.504a7.509 7.509 0 0 1 6.765 0c2.719 1.383 4.094 4.016 4.203 8.055.063 2.293-.68 4.938-2.21 7.863-1.333 2.54-2.97 4.746-4.11 6.149-.532.652-.98 1.168-1.266 1.488-.285-.32-.734-.836-1.266-1.488-1.14-1.403-2.78-3.61-4.109-6.149-1.531-2.925-2.277-5.57-2.215-7.863.114-4.039 1.489-6.672 4.207-8.055Zm-18.36 17.059h4.605l-2.3 6.445h-5.34Zm-3.77 8.004h13.207l-2.359 7.285H7.051Zm54.903 10.504H6.602V52.68h58.785Zm-29.39-22.95a5.261 5.261 0 0 0 5.257-5.253 5.265 5.265 0 0 0-5.258-5.258 5.265 5.265 0 0 0-5.258 5.258 5.261 5.261 0 0 0 5.258 5.254Zm0-8.953c2.038 0 3.698 1.657 3.698 3.7 0 2.039-1.66 3.699-3.699 3.699-2.039 0-3.7-1.66-3.7-3.7 0-2.042 1.661-3.699 3.7-3.699Zm0 0"/></g></symbol><symbol id="arrow-left" viewBox="0 0 15 17"><g fill="currentColor">
<path d="M14.7,9.31H3.02v-2.36H14.7v2.36Z"/>
<path d="M.26,8.13L7.97,.23l1.61,1.65L3.48,8.13l6.09,6.25-1.61,1.65L.26,8.13Z"/>
</g></symbol><symbol id="arrow-right" viewBox="0 0 15 17"><g fill="currentColor">
<path d="M0.263672 6.9548H11.9433V9.31266H0.263672V6.9548Z"/>
<path d="M7.00059 16.0348L5.39039 14.3833L11.4842 8.13434L5.39039 1.88538L7.00059 0.233887L14.7024 8.13437L7.00059 16.0348Z"/>
</g></symbol><symbol id="arrowRight" viewBox="0 0 12 12"><path d="M0,5.1H9.71v1.79H0v-1.79Z" fill="currentColor"/><path d="M5.6,12l-1.34-1.25,5.06-4.75L4.26,1.25l1.34-1.25,6.4,6-6.4,6Z" fill="currentColor"/></symbol><symbol id="calendar-alt" viewBox="0 0 28 29">
    <path fill="currentColor" d="M28 6.722V5.556A5.061 5.061 0 0 0 22.944.5H5.056A5.061 5.061 0 0 0 0 5.556v1.166h28ZM0 9.056v14.388A5.061 5.061 0 0 0 5.056 28.5h17.888A5.061 5.061 0 0 0 28 23.444V9.056H0Zm7.389 14.777a1.944 1.944 0 1 1 0-3.888 1.944 1.944 0 0 1 0 3.888Zm0-7a1.944 1.944 0 1 1 0-3.888 1.944 1.944 0 0 1 0 3.888Zm6.611 7a1.944 1.944 0 1 1 0-3.888 1.944 1.944 0 0 1 0 3.888Zm0-7a1.944 1.944 0 1 1 0-3.888 1.944 1.944 0 0 1 0 3.888Zm6.611 0a1.944 1.944 0 1 1 0-3.888 1.944 1.944 0 0 1 0 3.888Z"/>
</symbol><symbol id="calendar-check" viewBox="0 0 15 16"><g fill="currentColor">
<path d="M3.7496 0.5C3.23366 0.5 2.81177 0.921889 2.81177 1.43783V2.84413H4.68653V1.43783C4.68741 0.921889 4.26552 0.5 3.74958 0.5H3.7496Z" fill="currentColor"/>
<path d="M12.1873 2.84375V3.78158C12.1873 4.29752 11.7654 4.71941 11.2495 4.71941C10.7335 4.71941 10.3116 4.29752 10.3116 3.78158V2.84375H4.68735V3.78158C4.68735 4.29752 4.26546 4.71941 3.74952 4.71941C3.23358 4.71941 2.81169 4.29752 2.81169 3.78158V2.84375H0V15.5004H15.0008L14.9999 2.84375H12.1873ZM13.1251 13.6257H1.87476V5.65634H13.1251V13.6257Z" fill="currentColor"/>
<path d="M11.2505 0.5C10.7345 0.5 10.3126 0.921889 10.3126 1.43783V2.84413H12.1874V1.43783C12.1874 0.921889 11.7655 0.5 11.2504 0.5H11.2505Z" fill="currentColor"/>
<path d="M6.56234 12.5942L4.03101 10.0629L5.34413 8.74976L6.56234 9.96885L9.65619 6.875L10.9693 8.18724L6.56234 12.5942Z" fill="currentColor"/>
</g></symbol><symbol id="calendar" viewBox="0 0 15 17"><path d="M3.75,0C3.23,0,2.81,.48,2.81,1.06v1.59h1.87V1.06C4.69,.48,4.27,0,3.75,0h0Z" fill="currentColor"/><path d="M12.19,2.66v1.06c0,.58-.42,1.06-.94,1.06s-.94-.48-.94-1.06v-1.06H4.69v1.06c0,.58-.42,1.06-.94,1.06s-.94-.48-.94-1.06v-1.06H0v14.34H15V2.66h-2.81Zm.94,12.22H1.87V5.84H13.12V14.88Z" fill="currentColor"/><path d="M11.25,0C10.73,0,10.31,.48,10.31,1.06v1.59h1.87V1.06C12.19,.48,11.76,0,11.25,0h0Z" fill="currentColor"/><rect x="2.81" y="7.56" width="2" height="2" fill="currentColor"/><rect x="2.81" y="11.33" width="2" height="2" fill="currentColor"/><rect x="6.56" y="7.56" width="2" height="2" fill="currentColor"/><rect x="6.56" y="11.33" width="2" height="2" fill="currentColor"/><rect x="10.31" y="7.56" width="2" height="2" fill="currentColor"/><rect x="10.31" y="11.33" width="2" height="2" fill="currentColor"/></symbol><symbol id="camera" viewBox="0 0 11 10"><g fill="currentColor">
<path d="M6.85635 5.96646C6.85635 6.75619 6.21615 7.39639 5.42642 7.39639C4.63669 7.39639 3.9965 6.75619 3.9965 5.96646C3.9965 5.17673 4.63669 4.53653 5.42642 4.53653C6.21615 4.53653 6.85635 5.17673 6.85635 5.96646Z" fill="currentColor"/>
<path fill-rule="evenodd" clip-rule="evenodd" d="M3.17647 2.15654L3.83824 0.833008H7.01471L7.67647 2.15654H9.92647C10.4399 2.15654 10.8529 2.56962 10.8529 3.08301V8.90654C10.8529 9.41992 10.4399 9.83301 9.92647 9.83301H0.926471C0.413087 9.83301 0 9.41992 0 8.90654V3.08301C0 2.56962 0.413087 2.15654 0.926471 2.15654H3.17647ZM5.42644 8.25343C6.68939 8.25343 7.71321 7.22961 7.71321 5.96666C7.71321 4.70371 6.68939 3.67989 5.42644 3.67989C4.16349 3.67989 3.13966 4.70371 3.13966 5.96666C3.13966 7.22961 4.16349 8.25343 5.42644 8.25343ZM6.85635 5.96646C6.85635 6.75619 6.21615 7.39639 5.42642 7.39639C4.63669 7.39639 3.9965 6.75619 3.9965 5.96646C3.9965 5.17673 4.63669 4.53653 5.42642 4.53653C6.21615 4.53653 6.85635 5.17673 6.85635 5.96646Z" fill="currentColor"/>
</g></symbol><symbol id="caret-down" viewBox="0 0 14 14"><g fill="currentColor">
<path d="M12.3409 4.7564C12.6559 4.44142 12.4328 3.90285 11.9873 3.90285L2.01253 3.90283C1.56707 3.90283 1.34399 4.4414 1.65897 4.75639L6.64638 9.74379C6.84164 9.93905 7.15822 9.93905 7.35348 9.74379L12.3409 4.7564Z" fill="currentColor"/>
</g></symbol><symbol id="cellphone" viewBox="0 0 8 13"><g fill="currentColor">
<path d="M6.51007 0.181641H1.49014C0.734774 0.181641 0.106934 0.796444 0.106934 1.56485V10.9644C0.106934 11.7198 0.721737 12.3476 1.49014 12.3476H6.51007C7.26544 12.3476 7.89328 11.7328 7.89328 10.9644V1.56485C7.89278 0.79647 7.27847 0.181641 6.51007 0.181641ZM3.99979 11.5792C3.57708 11.5792 3.23141 11.2336 3.23141 10.8108C3.23141 10.3881 3.57708 10.0425 3.99979 10.0425C4.42249 10.0425 4.76816 10.3881 4.76816 10.8108C4.76816 11.2336 4.42249 11.5792 3.99979 11.5792ZM6.33485 9.32047H1.69143C1.51235 9.32047 1.37128 9.17939 1.37128 9.00031V1.885C1.37128 1.70592 1.51235 1.56485 1.69143 1.56485H6.33485C6.51393 1.56485 6.655 1.70592 6.655 1.885V9.00031C6.66751 9.17939 6.51393 9.32047 6.33485 9.32047Z" fill="currentColor"/>
</g></symbol><symbol id="chevron-outline" viewBox="0 0 8 14"><g fill="currentColor">
<path d="M7.69408 13.6918C7.88996 13.4945 8 13.2268 8 12.9477C8 12.6686 7.88996 12.401 7.69408 12.2036L2.52205 6.99365L7.69408 1.78371C7.88441 1.5852 7.98973 1.31933 7.98734 1.04337C7.98496 0.767401 7.87508 0.503418 7.68135 0.308273C7.48763 0.113128 7.22557 0.00243823 6.95161 3.97505e-05C6.67765 -0.00235777 6.41372 0.103729 6.21666 0.295453L0.305919 6.24952C0.110039 6.44689 -3.18457e-07 6.71456 -3.06257e-07 6.99365C-2.94058e-07 7.27273 0.110039 7.5404 0.305919 7.73777L6.21666 13.6918C6.4126 13.8892 6.67831 14 6.95537 14C7.23243 14 7.49814 13.8892 7.69408 13.6918Z" fill="currentColor"/>
</g></symbol><symbol id="chevron-up" viewBox="0 0 9 5"><path d="M1.07,4.1c-.22,.22-.07,.61,.25,.61h7.12c.32,0,.48-.38,.25-.61L5.14,.54c-.14-.14-.37-.14-.51,0L1.07,4.1Z" fill="currentColor"/></symbol><symbol id="contact" viewBox="0 0 14 15"><g fill="currentColor">
<path d="M12.4376 3.97268H9.62508V2.47267C9.62508 1.85157 9.12117 1.34766 8.50007 1.34766H5.50004C4.87894 1.34766 4.37503 1.85157 4.37503 2.47267V3.97268H1.56251C1.25196 3.97268 1 4.22465 1 4.53519V7.16021H13.0001V4.53519C13.0001 4.22465 12.7481 3.97268 12.4376 3.97268ZM8.12507 3.97268H5.87505V2.84767H8.12507V3.97268ZM8.50007 8.47272H13.0001V12.7853C13.0001 13.0958 12.7481 13.3478 12.4376 13.3478H1.56251C1.25196 13.3478 1 13.0958 1 12.7853V8.47272H5.50004V9.41023C5.50004 9.50984 5.53959 9.60507 5.60991 9.67538C5.68022 9.74569 5.77544 9.78524 5.87505 9.78524H8.12507C8.22468 9.78524 8.31991 9.74569 8.39022 9.67538C8.46053 9.60507 8.50009 9.50985 8.50009 9.41023L8.50007 8.47272Z" fill="currentColor"/>
</g></symbol><symbol id="download" viewBox="0 0 16 19"><g style="enable-background:new 0 0 16 19;">
<style type="text/css">
	.st0{fill:#862E2B;}
</style>
<g>
	<path class="st0" d="M15.5,18.5h-15v-18H10l5.5,6V18.5z M2.5,16.5h11V7.3L9.1,2.5H2.5V16.5z"/>
	<polygon class="st0" points="7.6,14.8 4.3,11.5 5.4,10.4 6.8,11.9 6.8,5.5 8.3,5.5 8.3,11.9 9.8,10.4 10.8,11.5 	"/>
</g>
</g></symbol><symbol id="facebook" viewBox="0 0 20 20"><path d="M20,10.06c0,2.49-.81,4.68-2.42,6.57-1.61,1.87-3.62,2.99-6.01,3.37v-7.02h2.34l.44-2.92h-2.78v-1.91c0-1.03,.54-1.54,1.61-1.54h1.25v-2.47c-.75-.14-1.49-.2-2.22-.2-.78,0-1.45,.15-2.02,.45-.54,.3-.97,.74-1.29,1.34-.32,.6-.48,1.3-.48,2.11v2.23h-2.54v2.92h2.54v7.02c-2.39-.38-4.4-1.5-6.01-3.37C.81,14.74,0,12.55,0,10.06,0,7.28,.97,4.91,2.9,2.96,4.87,.99,7.23,0,10,0s5.12,.99,7.06,2.96c1.96,1.95,2.94,4.31,2.94,7.1Z" fill="currentColor"/></symbol><symbol id="favorites" viewBox="0 0 21 20"><g fill="currentColor">
<path d="M10.4915 0.985352L12.847 8.23561L20.4695 8.23561L14.3028 12.7165L16.6583 19.9668L10.4915 15.4859L4.32476 19.9668L6.68025 12.7165L0.513492 8.23561L8.13603 8.23561L10.4915 0.985352Z" fill="currentColor"/>
</g></symbol><symbol id="grid" viewBox="0 0 512 512">
  <path fill="currentColor" d="M56 48h96c4.4 0 8 3.6 8 8v96c0 4.4-3.6 8-8 8H56c-4.4 0-8-3.6-8-8V56c0-4.4 3.6-8 8-8zm152 0h96c4.4 0 8 3.6 8 8v96c0 4.4-3.6 8-8 8h-96c-4.4 0-8-3.6-8-8V56c0-4.4 3.6-8 8-8zm152 0h96c4.4 0 8 3.6 8 8v96c0 4.4-3.6 8-8 8h-96c-4.4 0-8-3.6-8-8V56c0-4.4 3.6-8 8-8zM56 200h96c4.4 0 8 3.6 8 8v96c0 4.4-3.6 8-8 8H56c-4.4 0-8-3.6-8-8v-96c0-4.4 3.6-8 8-8zm152 0h96c4.4 0 8 3.6 8 8v96c0 4.4-3.6 8-8 8h-96c-4.4 0-8-3.6-8-8v-96c0-4.4 3.6-8 8-8zm152 0h96c4.4 0 8 3.6 8 8v96c0 4.4-3.6 8-8 8h-96c-4.4 0-8-3.6-8-8v-96c0-4.4 3.6-8 8-8zM56 352h96c4.4 0 8 3.6 8 8v96c0 4.4-3.6 8-8 8H56c-4.4 0-8-3.6-8-8v-96c0-4.4 3.6-8 8-8zm152 0h96c4.4 0 8 3.6 8 8v96c0 4.4-3.6 8-8 8h-96c-4.4 0-8-3.6-8-8v-96c0-4.4 3.6-8 8-8zm152 0h96c4.4 0 8 3.6 8 8v96c0 4.4-3.6 8-8 8h-96c-4.4 0-8-3.6-8-8v-96c0-4.4 3.6-8 8-8z"/>
</symbol><symbol id="instagram" viewBox="0 0 24 24"><path d="M12.12,2.14c3.17,0,3.55,.01,4.8,.07,1.16,.05,1.79,.25,2.21,.41,.52,.19,.98,.49,1.37,.89,.39,.38,.7,.85,.89,1.37,.16,.42,.36,1.05,.41,2.21,.06,1.25,.07,1.63,.07,4.8s-.01,3.55-.07,4.8c-.05,1.16-.25,1.79-.41,2.21-.2,.51-.5,.98-.89,1.37-.39,.39-.85,.69-1.37,.89-.42,.16-1.05,.36-2.21,.41-1.25,.06-1.63,.07-4.8,.07s-3.55-.01-4.8-.07c-1.16-.05-1.79-.25-2.21-.41-.52-.19-.98-.49-1.37-.89-.39-.38-.7-.85-.89-1.37-.16-.42-.36-1.05-.41-2.21-.06-1.25-.07-1.63-.07-4.8s.01-3.55,.07-4.8c.05-1.16,.25-1.79,.41-2.21,.19-.52,.49-.98,.89-1.37,.38-.39,.85-.7,1.37-.89,.42-.16,1.05-.36,2.21-.41,1.25-.06,1.63-.07,4.8-.07h0Zm0-2.14c-3.23,0-3.63,.01-4.9,.07-1.27,.06-2.13,.26-2.88,.55-.79,.3-1.51,.77-2.1,1.37-.6,.59-1.07,1.31-1.37,2.1-.29,.75-.49,1.62-.55,2.88-.06,1.26-.07,1.67-.07,4.9s.01,3.63,.07,4.9c.06,1.27,.26,2.13,.55,2.88,.3,.79,.77,1.51,1.37,2.1,.59,.6,1.31,1.07,2.1,1.37,.75,.29,1.62,.49,2.88,.55,1.26,.06,1.67,.07,4.9,.07s3.63-.01,4.9-.07c1.27-.06,2.13-.26,2.88-.55,.79-.3,1.51-.77,2.1-1.37,.6-.6,1.06-1.32,1.37-2.1,.29-.75,.49-1.62,.55-2.88,.06-1.26,.07-1.67,.07-4.9s-.01-3.63-.07-4.9c-.06-1.27-.26-2.13-.55-2.88-.3-.79-.77-1.51-1.37-2.1-.59-.6-1.31-1.07-2.1-1.37-.75-.29-1.62-.49-2.88-.55C15.76,.02,15.35,0,12.12,0h0Z" fill="currentColor"/><path d="M12.12,5.78c-1.21,0-2.39,.36-3.39,1.03-1,.67-1.78,1.62-2.25,2.74-.46,1.11-.58,2.34-.35,3.52,.24,1.18,.82,2.27,1.67,3.12s1.94,1.43,3.12,1.67c1.18,.24,2.41,.11,3.52-.35,1.11-.46,2.07-1.24,2.74-2.25,.67-1,1.03-2.18,1.03-3.39,0-.8-.16-1.59-.46-2.33-.31-.74-.76-1.41-1.32-1.98-.57-.57-1.24-1.02-1.98-1.32-.74-.31-1.53-.46-2.33-.46Zm0,10.06c-.78,0-1.55-.23-2.2-.67-.65-.44-1.16-1.05-1.46-1.78s-.38-1.52-.23-2.29c.15-.77,.53-1.47,1.08-2.03,.55-.55,1.26-.93,2.03-1.08,.77-.15,1.56-.07,2.29,.23,.72,.3,1.34,.81,1.78,1.46,.44,.65,.67,1.42,.67,2.2,0,1.05-.42,2.06-1.16,2.8-.74,.74-1.75,1.16-2.8,1.16Z" fill="currentColor"/><path d="M18.46,6.96c.79,0,1.43-.64,1.43-1.43s-.64-1.43-1.43-1.43-1.43,.64-1.43,1.43,.64,1.43,1.43,1.43Z" fill="currentColor"/></symbol><symbol id="lease-terms" viewBox="0 0 72 72" preserveAspectRatio="xMidYMid meet"><g clip-path="url(#403971a578)"><path fill="currentColor" d="M 59.515625 33.386719 C 58.074219 33.386719 56.898438 34.5625 56.898438 36 C 56.898438 36.800781 56.859375 37.585938 56.769531 38.363281 C 56.601562 39.792969 57.640625 41.085938 59.070312 41.253906 C 59.175781 41.265625 61.683594 41.59375 61.957031 38.949219 C 62.066406 37.984375 62.125 36.996094 62.125 36 C 62.125 34.5625 60.953125 33.386719 59.515625 33.386719 " fill-opacity="1" fill-rule="nonzero"/></g><path fill="currentColor" d="M 58.230469 44.109375 C 56.929688 43.46875 55.367188 43.992188 54.722656 45.277344 C 54.320312 46.078125 53.863281 46.863281 53.371094 47.601562 C 52.570312 48.808594 52.878906 50.449219 54.089844 51.222656 C 55.550781 52.15625 57.207031 51.253906 57.714844 50.5 C 58.332031 49.578125 58.898438 48.597656 59.402344 47.601562 C 60.046875 46.316406 59.523438 44.753906 58.230469 44.109375 " fill-opacity="1" fill-rule="nonzero"/><path fill="currentColor" d="M 47.601562 53.382812 C 46.148438 54.351562 44.601562 55.128906 42.960938 55.707031 C 41.601562 56.1875 40.882812 57.683594 41.371094 59.039062 C 41.75 60.109375 43.054688 61.222656 44.703125 60.632812 C 46.738281 59.902344 48.707031 58.925781 50.515625 57.722656 C 51.707031 56.921875 52.035156 55.296875 51.234375 54.101562 C 50.429688 52.898438 48.800781 52.578125 47.601562 53.382812 " fill-opacity="1" fill-rule="nonzero"/><g clip-path="url(#8733d39d0f)"><path fill="currentColor" d="M 36 56.902344 C 24.476562 56.902344 15.09375 47.523438 15.09375 36 C 15.09375 24.480469 24.476562 15.09375 36 15.09375 C 41.667969 15.09375 47.078125 17.433594 51.007812 21.484375 L 48.742188 23.757812 C 48.082031 24.414062 48.546875 25.539062 49.484375 25.539062 L 57.785156 25.539062 C 58.363281 25.539062 58.832031 25.074219 58.832031 24.488281 L 58.832031 16.15625 C 58.832031 15.222656 57.714844 14.757812 57.054688 15.414062 L 54.699219 17.78125 C 49.78125 12.761719 43.054688 9.871094 36 9.871094 C 21.589844 9.871094 9.871094 21.585938 9.871094 36 C 9.871094 50.414062 21.589844 62.125 36 62.125 C 37.441406 62.125 38.609375 60.953125 38.609375 59.515625 C 38.609375 58.070312 37.441406 56.902344 36 56.902344 " fill-opacity="1" fill-rule="nonzero"/></g><path fill="currentColor" d="M 36 20.324219 C 34.554688 20.324219 33.386719 21.492188 33.386719 22.933594 L 33.386719 36 C 33.386719 37.441406 34.554688 38.609375 36 38.609375 L 43.835938 38.609375 C 45.277344 38.609375 46.449219 37.441406 46.449219 36 C 46.449219 34.5625 45.277344 33.386719 43.835938 33.386719 L 38.609375 33.386719 L 38.609375 22.933594 C 38.609375 21.488281 37.441406 20.324219 36 20.324219 " fill-opacity="1" fill-rule="nonzero"/></symbol><symbol id="link" viewBox="0 0 19 18"><g fill="currentColor">
<path d="M14.5788 10.6274L17.1132 8.09219C18.9624 6.24375 18.9624 3.23519 17.1132 1.38679C15.2648 -0.462427 12.2562 -0.462427 10.407 1.38679L6.74922 5.04459C4.9 6.89303 4.9 9.90159 6.74922 11.75C7.02188 12.0234 7.3211 12.2547 7.6375 12.4469L9.59532 10.4883C9.22266 10.3992 8.86876 10.2109 8.57814 9.92031C7.73752 9.07969 7.73752 7.71251 8.57814 6.87191L12.2359 3.21411C13.0766 2.37349 14.4437 2.37349 15.2843 3.21411C16.125 4.05473 16.125 5.42191 15.2843 6.26251L14.2101 7.33751C14.6531 8.38047 14.775 9.52731 14.5789 10.6273L14.5788 10.6274Z" fill="currentColor"/>
<path d="M4.42083 7.37307L1.88643 9.90747C0.0372066 11.7559 0.0372066 14.7645 1.88643 16.6137C3.73487 18.4629 6.74343 18.4629 8.59263 16.6137L12.2504 12.9559C14.0996 11.1074 14.0989 8.09887 12.2504 6.25047C11.9778 5.97703 11.6785 5.74579 11.3629 5.55359L9.40511 7.51219C9.77777 7.60125 10.1317 7.78953 10.4223 8.08015C11.2629 8.92077 11.2629 10.2879 10.4223 11.1285L6.76449 14.7863C5.92387 15.627 4.55669 15.627 3.71609 14.7863C2.87547 13.9457 2.87547 12.5785 3.71609 11.7379L4.79109 10.6637C4.34655 9.61997 4.22469 8.47313 4.42077 7.37313L4.42083 7.37307Z" fill="currentColor"/>
</g></symbol><symbol id="linkedin" viewBox="0 0 16 16"><path d="M3.74,15.69H.55V5.42H3.74V15.69ZM2.16,4.02c-.5,0-.94-.18-1.3-.55-.37-.37-.55-.8-.55-1.3s.18-.94,.55-1.3c.37-.37,.8-.55,1.3-.55,.32,0,.62,.08,.89,.24,.3,.16,.53,.39,.69,.69,.18,.27,.27,.58,.27,.93,0,.32-.09,.63-.27,.93-.16,.27-.39,.5-.69,.69-.27,.16-.57,.24-.89,.24ZM15.69,15.69h-3.19v-5.01c0-.39-.01-.7-.03-.93-.02-.25-.08-.53-.17-.82-.09-.32-.26-.56-.52-.72-.23-.16-.54-.24-.93-.24-.76,0-1.27,.24-1.55,.72-.25,.48-.38,1.12-.38,1.92v5.08h-3.19V5.42h3.09v1.41h.03c.23-.46,.61-.85,1.13-1.17,.53-.34,1.16-.52,1.89-.52,.78,0,1.42,.13,1.92,.38,.53,.23,.92,.58,1.17,1.06,.27,.46,.46,.96,.55,1.51,.11,.55,.17,1.2,.17,1.96v5.63Z" fill="currentColor"/></symbol><symbol id="location" viewBox="0 0 72 72"><path fill="currentColor" d="m24.828 47.172 15.559-6.785 6.832-15.516-15.563 6.785Zm9.313-13.031c.246-.25.53-.438.851-.575a2.634 2.634 0 0 1 2.016 0c.324.133.61.325.855.57.246.247.438.532.57.856.137.324.204.66.204 1.008s-.067.684-.203 1.008c-.133.324-.325.61-.57.855a2.587 2.587 0 0 1-.856.57 2.634 2.634 0 0 1-2.016 0 2.622 2.622 0 0 1-.851-.574 2.638 2.638 0 0 1-.773-1.86 2.638 2.638 0 0 1 .773-1.858Zm0 0"/><g clip-path="url(#a)"><path fill="currentColor" d="M60.578 35.563h1.754a27.352 27.352 0 0 0-.164-2.528 27.203 27.203 0 0 0-.402-2.496 26.488 26.488 0 0 0-3.93-9.262c-.473-.699-.977-1.375-1.512-2.027a26.702 26.702 0 0 0-1.703-1.875 26.25 26.25 0 0 0-6.063-4.523c-.742-.403-1.5-.77-2.277-1.098a26.488 26.488 0 0 0-4.82-1.52 27.203 27.203 0 0 0-2.496-.402 26.055 26.055 0 0 0-2.528-.164v1.754a.428.428 0 0 1-.128.312.419.419 0 0 1-.309.13.413.413 0 0 1-.309-.13.428.428 0 0 1-.129-.312V9.668c-.843.016-1.687.066-2.527.164-.836.094-1.668.23-2.496.402a26.488 26.488 0 0 0-9.262 3.93 26.25 26.25 0 0 0-8.425 9.277c-.403.743-.77 1.5-1.098 2.278a26.488 26.488 0 0 0-1.52 4.82c-.171.828-.308 1.66-.402 2.496-.098.84-.148 1.684-.164 2.528h1.754c.121 0 .226.042.312.128a.413.413 0 0 1 .13.309.419.419 0 0 1-.13.309.428.428 0 0 1-.312.129H9.668c.016.843.066 1.687.164 2.527.094.836.23 1.668.402 2.496a26.488 26.488 0 0 0 3.93 9.262 26.25 26.25 0 0 0 9.277 8.425c.743.403 1.5.77 2.278 1.098a26.488 26.488 0 0 0 4.82 1.52c.828.171 1.66.308 2.496.402.84.094 1.684.148 2.528.164v-1.754c0-.121.042-.226.128-.312a.413.413 0 0 1 .309-.13c.121 0 .223.044.309.13a.428.428 0 0 1 .129.312v1.754c.843-.016 1.687-.07 2.527-.164.836-.094 1.668-.23 2.496-.402a26.488 26.488 0 0 0 9.262-3.93 25.796 25.796 0 0 0 3.898-3.215 25.796 25.796 0 0 0 3.215-3.898c.473-.7.91-1.422 1.312-2.164.403-.743.77-1.5 1.098-2.278a26.488 26.488 0 0 0 1.52-4.82c.171-.828.308-1.66.402-2.496.094-.84.148-1.684.164-2.528h-1.754a.428.428 0 0 1-.312-.128.419.419 0 0 1-.13-.309c0-.121.044-.227.13-.309a.428.428 0 0 1 .312-.129ZM36 57.94a21.995 21.995 0 0 1-8.398-1.668 22.124 22.124 0 0 1-5.524-3.312 21.444 21.444 0 0 1-1.594-1.445 22.034 22.034 0 0 1-2.73-3.324 22.628 22.628 0 0 1-1.106-1.848 21.061 21.061 0 0 1-.921-1.946A23.177 23.177 0 0 1 15 42.371a22.694 22.694 0 0 1-.523-2.09 23.103 23.103 0 0 1-.313-2.129 20.9 20.9 0 0 1-.11-2.152 22.91 22.91 0 0 1 .422-4.281c.141-.703.317-1.403.524-2.09.21-.688.453-1.363.727-2.027.273-.665.582-1.313.921-1.946.34-.633.707-1.25 1.106-1.847.398-.598.828-1.176 1.285-1.73.453-.556.938-1.087 1.445-1.595.508-.507 1.04-.992 1.594-1.445a21.329 21.329 0 0 1 1.73-1.285 22.628 22.628 0 0 1 1.848-1.106c.633-.34 1.282-.648 1.946-.921.664-.274 1.34-.516 2.027-.727a22.694 22.694 0 0 1 2.09-.523A22.91 22.91 0 0 1 36 14.055a20.9 20.9 0 0 1 2.152.11c.715.07 1.422.175 2.13.312.702.14 1.402.316 2.09.523.687.21 1.362.453 2.026.727.664.273 1.313.582 1.946.921.633.34 1.25.707 1.847 1.106a22.034 22.034 0 0 1 6.055 6.055 22.124 22.124 0 0 1 2.027 3.793c.274.664.516 1.34.727 2.027.207.687.383 1.387.523 2.09a21.995 21.995 0 0 1 .313 6.434c-.07.714-.176 1.421-.313 2.128-.14.703-.316 1.403-.523 2.09a22.124 22.124 0 0 1-4.04 7.55 21.444 21.444 0 0 1-1.444 1.595 22.034 22.034 0 0 1-3.324 2.73 22.124 22.124 0 0 1-3.793 2.027c-.665.274-1.34.516-2.028.727-.687.207-1.387.383-2.09.523a22.054 22.054 0 0 1-4.281.418Zm0 0"/></g></symbol><symbol id="locationPointer" viewBox="0 0 15 14"><g fill="currentColor">
<path d="M12.6284 1.15074L1.95579 5.48451C1.73702 5.56965 1.59512 5.78386 1.60337 6.01913C1.61069 6.25349 1.76539 6.45856 1.98966 6.52996L6.22161 7.93429V7.93338C6.37997 7.98922 6.50446 8.11372 6.55939 8.27209L7.9636 12.5044C8.035 12.7287 8.24005 12.8834 8.47439 12.8907C8.70965 12.898 8.92386 12.757 9.00897 12.5382L13.3562 1.87772C13.4404 1.66991 13.3928 1.4319 13.2336 1.27261C13.0752 1.11423 12.8372 1.06571 12.6285 1.15085L12.6284 1.15074Z" fill="currentColor"/>
</g></symbol><symbol id="map" viewBox="0 0 14 14"><g fill="currentColor">
<path d="M1 1.33203L4.66667 2.5561V12.5569L1 11.3328V1.33203ZM9.33335 1.44142L13 2.66548V12.6663L9.33335 11.4422V1.44142ZM8.66668 1.44142V11.4422L5.33334 12.5569V2.55609L8.66668 1.44142Z" fill="currentColor"/>
</g></symbol><symbol id="max-hunters" viewBox="0 0 72 72"><g clip-path="url(#a)"><path fill="currentColor" d="M35.98 9.652c-14.515 0-26.328 11.813-26.328 26.328 0 14.516 11.813 26.325 26.328 26.325 14.516 0 26.325-11.809 26.325-26.325 0-14.515-11.809-26.328-26.325-26.328Zm22.09 24.965H51.31c-.61-7.48-6.59-13.465-14.075-14.07v-6.664c11.172.629 20.153 9.578 20.836 20.734ZM34.723 31.29a4.753 4.753 0 0 0-3.328 3.328h-8.223c.594-6.094 5.457-10.957 11.55-11.55Zm-3.328 5.84a4.758 4.758 0 0 0 3.328 3.332v8.219c-6.094-.594-10.957-5.453-11.551-11.551Zm5.84 3.332a4.763 4.763 0 0 0 3.331-3.332h8.223c-.594 6.098-5.457 10.957-11.555 11.55Zm3.331-5.844a4.758 4.758 0 0 0-3.332-3.328v-8.223c6.098.594 10.961 5.457 11.555 11.551Zm-5.843-20.734v6.664c-7.48.61-13.461 6.59-14.07 14.07H13.89c.68-11.156 9.66-20.105 20.832-20.734ZM13.875 37.129h6.777c.61 7.484 6.59 13.465 14.07 14.074v6.875c-11.242-.633-20.269-9.691-20.847-20.95Zm23.36 20.95v-6.876c7.484-.61 13.464-6.59 14.074-14.074h6.777c-.582 11.258-9.61 20.316-20.852 20.95Zm0 0"/></g></symbol><symbol id="mobilePhone" viewBox="0 0 8 13"><g fill="currentColor">
<path d="M6.51007 0.681641H1.49014C0.734774 0.681641 0.106934 1.29644 0.106934 2.06485V11.4644C0.106934 12.2198 0.721737 12.8476 1.49014 12.8476H6.51007C7.26544 12.8476 7.89328 12.2328 7.89328 11.4644V2.06485C7.89278 1.29647 7.27847 0.681641 6.51007 0.681641ZM3.99979 12.0792C3.57708 12.0792 3.23141 11.7336 3.23141 11.3108C3.23141 10.8881 3.57708 10.5425 3.99979 10.5425C4.42249 10.5425 4.76816 10.8881 4.76816 11.3108C4.76816 11.7336 4.42249 12.0792 3.99979 12.0792ZM6.33485 9.82047H1.69143C1.51235 9.82047 1.37128 9.67939 1.37128 9.50031V2.385C1.37128 2.20592 1.51235 2.06485 1.69143 2.06485H6.33485C6.51393 2.06485 6.655 2.20592 6.655 2.385V9.50031C6.66751 9.67939 6.51393 9.82047 6.33485 9.82047Z" fill="currentColor"/>
</g></symbol><symbol id="officePhone" viewBox="0 0 13 13"><g fill="currentColor">
<path d="M11.9376 2.97244H9.12508V1.47242C9.12508 0.851323 8.62117 0.347412 8.00007 0.347412H5.00004C4.37894 0.347412 3.87503 0.851323 3.87503 1.47242V2.97244H1.06251C0.751965 2.97244 0.5 3.2244 0.5 3.53494V6.15997H12.5001V3.53494C12.5001 3.2244 12.2481 2.97244 11.9376 2.97244ZM7.62507 2.97244H5.37505V1.84743H7.62507V2.97244ZM8.00007 7.47248H12.5001V11.785C12.5001 12.0956 12.2481 12.3475 11.9376 12.3475H1.06251C0.751965 12.3475 0.5 12.0956 0.5 11.785V7.47248H5.00004V8.40999C5.00004 8.5096 5.03959 8.60482 5.10991 8.67513C5.18022 8.74545 5.27544 8.785 5.37505 8.785H7.62507C7.72468 8.785 7.81991 8.74545 7.89022 8.67513C7.96053 8.60482 8.00009 8.50961 8.00009 8.40999L8.00007 7.47248Z" fill="currentColor"/>
</g></symbol><symbol id="phone" viewBox="0 0 13 13"><g fill="currentColor">
<path d="M11.9376 2.97244H9.12508V1.47242C9.12508 0.851323 8.62117 0.347412 8.00007 0.347412H5.00004C4.37894 0.347412 3.87503 0.851323 3.87503 1.47242V2.97244H1.06251C0.751965 2.97244 0.5 3.2244 0.5 3.53494V6.15997H12.5001V3.53494C12.5001 3.2244 12.2481 2.97244 11.9376 2.97244ZM7.62507 2.97244H5.37505V1.84743H7.62507V2.97244ZM8.00007 7.47248H12.5001V11.785C12.5001 12.0956 12.2481 12.3475 11.9376 12.3475H1.06251C0.751965 12.3475 0.5 12.0956 0.5 11.785V7.47248H5.00004V8.40999C5.00004 8.5096 5.03959 8.60482 5.10991 8.67513C5.18022 8.74545 5.27544 8.785 5.37505 8.785H7.62507C7.72468 8.785 7.81991 8.74545 7.89022 8.67513C7.96053 8.60482 8.00009 8.50961 8.00009 8.40999L8.00007 7.47248Z" fill="currentColor"/>
</g></symbol><symbol id="print" viewBox="0 0 14 14"><g fill="currentColor">
<path fill-rule="evenodd" clip-rule="evenodd" d="M4.08029 10.9187H9.91971V5.80822L7.41821 3.07932H4.08029V10.9187ZM2 12.999V0.999023H8.33333L12 4.99902V12.999H2Z" fill="currentColor"/>
</g></symbol><symbol id="profile" viewBox="0 0 21 21"><g fill="currentColor">
<path d="M0.0479553 20.9854C-0.0586093 19.7967 0.000411392 18.6417 0.347161 17.5302C0.56356 16.8367 1.11608 16.3875 1.79316 16.1751C2.75634 15.8719 3.74413 15.6489 4.71135 15.3587C5.28517 15.1857 5.86717 14.998 6.40328 14.7308C7.61976 14.1242 7.82059 13.2487 7.25416 11.9979C6.62624 10.6109 6.04752 9.19281 5.57371 7.74673C5.13926 6.4245 5.12287 5.04489 5.47945 3.67436C5.99423 1.69061 7.45992 0.357659 9.48634 0.0789766C10.9545 -0.122678 12.3563 0.0273343 13.603 0.933952C15.4621 2.28651 15.8098 4.23092 15.5933 6.33594C15.3917 8.29182 14.6867 10.1068 13.7776 11.8364C12.9989 13.3176 13.2923 14.2578 14.8383 14.8693C15.8466 15.2669 16.9172 15.5022 17.9599 15.812C18.3878 15.9399 18.8321 16.0334 19.237 16.2129C20.0256 16.5613 20.6076 17.117 20.7043 18.0392C20.8068 19.0057 20.888 19.9738 20.983 20.9853L0.0479553 20.9854Z" fill="currentColor"/>
</g></symbol><symbol id="right-arrow" viewBox="0 0 10 10"><g fill="currentColor">
<path d="M0.5 4.32815H7.78018V5.67116H0.5V4.32815Z" fill="currentColor"/>
<path d="M4.69927 9.5L3.69559 8.55933L7.494 5L3.69559 1.44067L4.69927 0.5L9.5 5.00002L4.69927 9.5Z" fill="currentColor"/>
</g></symbol><symbol id="savedSearches" viewBox="0 0 21 22"><g fill="currentColor">
<path d="M20.983 19.5822L15.395 13.994C16.2746 12.666 16.7861 11.0766 16.7861 9.36483C16.7861 4.72833 13.0286 0.970703 8.39304 0.970703C3.75752 0.970703 0 4.72917 0 9.36567C0 14.0005 3.75752 17.7598 8.39304 17.7598C10.1038 17.7598 11.6948 17.2466 13.0221 16.3679L18.6092 21.9561L20.983 19.5822ZM2.37801 9.36651C2.37801 6.04411 5.0716 3.35212 8.39306 3.35212C11.7154 3.35212 14.409 6.04411 14.409 9.36651C14.409 12.6889 11.7154 15.3826 8.39306 15.3826C5.0716 15.3826 2.37801 12.6889 2.37801 9.36651Z" fill="currentColor"/>
</g></symbol><symbol id="scheduled-end-date" viewBox="0 0 72 72" preserveAspectRatio="xMidYMid meet"><g clip-path="url(#bf2c50aa5f)"><path fill="currentColor" d="M 55.890625 62.523438 L 16.105469 62.523438 C 15.777344 62.523438 15.453125 62.492188 15.132812 62.425781 C 14.8125 62.363281 14.503906 62.269531 14.199219 62.144531 C 13.898438 62.019531 13.613281 61.867188 13.339844 61.683594 C 13.070312 61.503906 12.816406 61.296875 12.585938 61.066406 C 12.355469 60.835938 12.148438 60.585938 11.96875 60.3125 C 11.789062 60.042969 11.632812 59.753906 11.507812 59.453125 C 11.382812 59.152344 11.289062 58.839844 11.226562 58.519531 C 11.164062 58.199219 11.128906 57.875 11.128906 57.550781 L 11.128906 32.683594 L 14.445312 32.683594 L 14.445312 57.550781 C 14.445312 57.769531 14.488281 57.980469 14.574219 58.183594 C 14.65625 58.386719 14.777344 58.566406 14.933594 58.722656 C 15.085938 58.878906 15.265625 58.996094 15.46875 59.082031 C 15.671875 59.164062 15.882812 59.207031 16.105469 59.207031 L 55.890625 59.207031 C 56.113281 59.207031 56.324219 59.164062 56.527344 59.082031 C 56.730469 58.996094 56.910156 58.878906 57.0625 58.722656 C 57.21875 58.566406 57.339844 58.386719 57.421875 58.183594 C 57.507812 57.980469 57.550781 57.769531 57.550781 57.550781 L 57.550781 32.683594 L 60.863281 32.683594 L 60.863281 57.550781 C 60.863281 57.875 60.832031 58.199219 60.769531 58.519531 C 60.707031 58.839844 60.613281 59.152344 60.488281 59.453125 C 60.363281 59.753906 60.207031 60.042969 60.027344 60.3125 C 59.84375 60.585938 59.640625 60.835938 59.410156 61.066406 C 59.175781 61.296875 58.925781 61.503906 58.65625 61.683594 C 58.382812 61.867188 58.097656 62.019531 57.796875 62.144531 C 57.492188 62.269531 57.183594 62.363281 56.863281 62.425781 C 56.542969 62.492188 56.21875 62.523438 55.890625 62.523438 Z M 55.890625 62.523438 " fill-opacity="1" fill-rule="nonzero"/></g><g clip-path="url(#73e3772c37)"><path fill="currentColor" d="M 59.207031 14.445312 L 50.917969 14.445312 L 50.917969 19.421875 C 50.917969 19.859375 50.835938 20.28125 50.664062 20.6875 C 50.496094 21.09375 50.257812 21.453125 49.945312 21.765625 C 49.636719 22.074219 49.277344 22.316406 48.871094 22.484375 C 48.464844 22.652344 48.042969 22.734375 47.601562 22.734375 C 47.164062 22.734375 46.738281 22.652344 46.332031 22.484375 C 45.925781 22.316406 45.570312 22.074219 45.257812 21.765625 C 44.945312 21.453125 44.707031 21.09375 44.539062 20.6875 C 44.371094 20.28125 44.285156 19.859375 44.285156 19.421875 L 44.285156 14.445312 L 27.707031 14.445312 L 27.707031 19.421875 C 27.707031 19.859375 27.625 20.28125 27.457031 20.6875 C 27.289062 21.09375 27.046875 21.453125 26.738281 21.765625 C 26.425781 22.074219 26.066406 22.316406 25.660156 22.484375 C 25.257812 22.652344 24.832031 22.734375 24.394531 22.734375 C 23.953125 22.734375 23.53125 22.652344 23.125 22.484375 C 22.71875 22.316406 22.359375 22.074219 22.046875 21.765625 C 21.738281 21.453125 21.5 21.09375 21.328125 20.6875 C 21.160156 20.28125 21.078125 19.859375 21.078125 19.421875 L 21.078125 14.445312 L 12.789062 14.445312 C 12.570312 14.445312 12.355469 14.488281 12.152344 14.574219 C 11.949219 14.65625 11.773438 14.777344 11.617188 14.933594 C 11.460938 15.085938 11.339844 15.265625 11.257812 15.46875 C 11.171875 15.671875 11.128906 15.882812 11.128906 16.105469 L 11.128906 29.367188 L 60.863281 29.367188 L 60.863281 16.105469 C 60.863281 15.882812 60.824219 15.671875 60.738281 15.46875 C 60.65625 15.265625 60.535156 15.085938 60.378906 14.933594 C 60.222656 14.777344 60.042969 14.65625 59.839844 14.574219 C 59.636719 14.488281 59.425781 14.445312 59.207031 14.445312 Z M 59.207031 14.445312 " fill-opacity="1" fill-rule="nonzero"/></g><g clip-path="url(#0fcafeb37a)"><path fill="currentColor" d="M 24.394531 21.078125 C 24.171875 21.078125 23.960938 21.035156 23.757812 20.953125 C 23.554688 20.867188 23.375 20.746094 23.222656 20.59375 C 23.066406 20.4375 22.945312 20.257812 22.863281 20.054688 C 22.777344 19.851562 22.734375 19.640625 22.734375 19.421875 L 22.734375 11.132812 C 22.734375 10.910156 22.777344 10.699219 22.863281 10.496094 C 22.945312 10.292969 23.066406 10.113281 23.222656 9.957031 C 23.375 9.804688 23.554688 9.683594 23.757812 9.597656 C 23.960938 9.515625 24.171875 9.472656 24.394531 9.472656 C 24.613281 9.472656 24.824219 9.515625 25.027344 9.597656 C 25.230469 9.683594 25.410156 9.804688 25.566406 9.957031 C 25.722656 10.113281 25.839844 10.292969 25.925781 10.496094 C 26.007812 10.699219 26.050781 10.910156 26.050781 11.132812 L 26.050781 19.421875 C 26.050781 19.640625 26.007812 19.851562 25.925781 20.054688 C 25.839844 20.257812 25.722656 20.4375 25.566406 20.59375 C 25.410156 20.746094 25.230469 20.867188 25.027344 20.953125 C 24.824219 21.035156 24.613281 21.078125 24.394531 21.078125 Z M 24.394531 21.078125 " fill-opacity="1" fill-rule="nonzero"/></g><g clip-path="url(#e640f1980a)"><path fill="currentColor" d="M 47.601562 21.078125 C 47.382812 21.078125 47.171875 21.035156 46.96875 20.953125 C 46.765625 20.867188 46.585938 20.746094 46.429688 20.59375 C 46.273438 20.4375 46.15625 20.257812 46.070312 20.054688 C 45.988281 19.851562 45.945312 19.640625 45.945312 19.421875 L 45.945312 11.132812 C 45.945312 10.910156 45.988281 10.699219 46.070312 10.496094 C 46.15625 10.292969 46.273438 10.113281 46.429688 9.957031 C 46.585938 9.804688 46.765625 9.683594 46.96875 9.597656 C 47.171875 9.515625 47.382812 9.472656 47.601562 9.472656 C 47.824219 9.472656 48.035156 9.515625 48.238281 9.597656 C 48.441406 9.683594 48.621094 9.804688 48.773438 9.957031 C 48.929688 10.113281 49.050781 10.292969 49.132812 10.496094 C 49.21875 10.699219 49.261719 10.910156 49.261719 11.132812 L 49.261719 19.421875 C 49.261719 19.640625 49.21875 19.851562 49.132812 20.054688 C 49.050781 20.257812 48.929688 20.4375 48.773438 20.59375 C 48.621094 20.746094 48.441406 20.867188 48.238281 20.953125 C 48.035156 21.035156 47.824219 21.078125 47.601562 21.078125 Z M 47.601562 21.078125 " fill-opacity="1" fill-rule="nonzero"/></g><path fill="currentColor" d="M 33.445312 50.917969 C 32.984375 50.917969 32.589844 50.75 32.269531 50.421875 L 27.292969 45.449219 C 27.121094 45.296875 26.984375 45.117188 26.882812 44.90625 C 26.785156 44.699219 26.730469 44.480469 26.726562 44.25 C 26.71875 44.019531 26.757812 43.796875 26.84375 43.582031 C 26.929688 43.367188 27.054688 43.179688 27.21875 43.015625 C 27.382812 42.855469 27.574219 42.730469 27.789062 42.648438 C 28.003906 42.566406 28.226562 42.53125 28.457031 42.539062 C 28.6875 42.550781 28.90625 42.605469 29.113281 42.710938 C 29.320312 42.8125 29.5 42.949219 29.648438 43.125 L 33.34375 46.875 L 43.011719 36.527344 C 43.164062 36.386719 43.339844 36.273438 43.535156 36.199219 C 43.730469 36.121094 43.929688 36.082031 44.140625 36.082031 C 44.351562 36.082031 44.554688 36.121094 44.75 36.195312 C 44.945312 36.273438 45.121094 36.382812 45.273438 36.527344 C 45.425781 36.667969 45.550781 36.835938 45.640625 37.023438 C 45.730469 37.214844 45.78125 37.414062 45.796875 37.625 C 45.8125 37.832031 45.789062 38.039062 45.722656 38.238281 C 45.660156 38.4375 45.5625 38.621094 45.429688 38.785156 L 34.589844 50.386719 C 34.265625 50.734375 33.867188 50.914062 33.394531 50.917969 Z M 33.445312 50.917969 " fill-opacity="1" fill-rule="nonzero"/></symbol><symbol id="scheduled-end-time" viewBox="0 0 72 72" preserveAspectRatio="xMidYMid meet"><g clip-path="url(#f361395f4f)"><path fill="currentColor" d="M 55.582031 27.226562 L 56.230469 26.578125 C 57.792969 25.015625 57.792969 22.476562 56.230469 20.914062 C 54.671875 19.351562 52.128906 19.351562 50.566406 20.914062 L 49.917969 21.5625 C 46.277344 18.96875 41.890625 17.363281 37.144531 17.140625 L 37.144531 13.675781 L 39.433594 13.675781 C 41.324219 13.675781 42.867188 12.136719 42.867188 10.242188 C 42.867188 8.351562 41.324219 6.808594 39.433594 6.808594 L 32.566406 6.808594 C 30.671875 6.808594 29.132812 8.351562 29.132812 10.242188 C 29.132812 12.136719 30.671875 13.675781 32.566406 13.675781 L 34.855469 13.675781 L 34.855469 17.140625 C 22.132812 17.738281 11.964844 28.277344 11.964844 41.144531 C 11.964844 54.398438 22.746094 65.179688 36 65.179688 C 49.253906 65.179688 60.035156 54.398438 60.035156 41.144531 C 60.035156 35.960938 58.382812 31.15625 55.582031 27.226562 Z M 31.421875 10.242188 C 31.421875 9.613281 31.933594 9.097656 32.566406 9.097656 L 39.433594 9.097656 C 40.0625 9.097656 40.578125 9.613281 40.578125 10.242188 C 40.578125 10.875 40.0625 11.386719 39.433594 11.386719 L 32.566406 11.386719 C 31.933594 11.386719 31.421875 10.875 31.421875 10.242188 Z M 52.183594 22.53125 C 52.855469 21.863281 53.945312 21.863281 54.613281 22.53125 C 55.28125 23.203125 55.28125 24.289062 54.613281 24.960938 L 54.15625 25.414062 C 53.40625 24.550781 52.59375 23.738281 51.730469 22.988281 Z M 36 62.890625 C 24.007812 62.890625 14.253906 53.136719 14.253906 41.144531 C 14.253906 29.15625 24.007812 19.398438 36 19.398438 C 47.988281 19.398438 57.746094 29.15625 57.746094 41.144531 C 57.746094 53.136719 47.988281 62.890625 36 62.890625 Z M 36 62.890625 " fill-opacity="1" fill-rule="nonzero"/></g><path fill="currentColor" d="M 36 22.832031 C 25.90625 22.832031 17.6875 31.046875 17.6875 41.144531 C 17.6875 51.238281 25.902344 59.457031 36 59.457031 C 46.09375 59.457031 54.3125 51.242188 54.3125 41.144531 C 54.3125 31.054688 46.097656 22.832031 36 22.832031 Z M 50.878906 42.289062 L 51.980469 42.289062 C 51.730469 45.847656 50.308594 49.089844 48.105469 51.632812 L 47.328125 50.859375 C 46.882812 50.410156 46.15625 50.410156 45.710938 50.859375 C 45.265625 51.304688 45.265625 52.027344 45.710938 52.476562 L 46.484375 53.25 C 43.945312 55.457031 40.703125 56.875 37.144531 57.128906 L 37.144531 56.023438 C 37.144531 55.394531 36.632812 54.878906 36 54.878906 C 35.367188 54.878906 34.855469 55.394531 34.855469 56.023438 L 34.855469 57.128906 C 31.296875 56.875 28.054688 55.457031 25.511719 53.25 L 26.289062 52.476562 C 26.734375 52.03125 26.734375 51.304688 26.289062 50.859375 C 25.839844 50.410156 25.117188 50.410156 24.667969 50.859375 L 23.894531 51.632812 C 21.6875 49.089844 20.269531 45.847656 20.015625 42.289062 L 21.121094 42.289062 C 21.753906 42.289062 22.265625 41.777344 22.265625 41.144531 C 22.265625 40.515625 21.753906 40 21.121094 40 L 20.015625 40 C 20.269531 36.441406 21.6875 33.203125 23.894531 30.660156 L 24.667969 31.433594 C 25.117188 31.882812 25.839844 31.882812 26.289062 31.433594 C 26.734375 30.988281 26.734375 30.261719 26.289062 29.816406 L 25.511719 29.039062 C 28.054688 26.835938 31.296875 25.417969 34.855469 25.164062 L 34.855469 26.265625 C 34.855469 26.898438 35.367188 27.410156 36 27.410156 C 36.632812 27.410156 37.144531 26.898438 37.144531 26.265625 L 37.144531 25.164062 C 40.703125 25.417969 43.945312 26.835938 46.484375 29.039062 L 45.710938 29.816406 C 45.265625 30.261719 45.265625 30.988281 45.710938 31.433594 C 46.15625 31.882812 46.882812 31.882812 47.328125 31.433594 L 48.105469 30.660156 C 50.308594 33.203125 51.730469 36.441406 51.980469 40 L 50.878906 40 C 50.246094 40 49.734375 40.515625 49.734375 41.144531 C 49.734375 41.777344 50.246094 42.289062 50.878906 42.289062 Z M 50.878906 42.289062 " fill-opacity="1" fill-rule="nonzero"/><path fill="currentColor" d="M 37.144531 37.910156 L 37.144531 30.84375 C 37.144531 30.214844 36.632812 29.699219 36 29.699219 C 35.367188 29.699219 34.855469 30.214844 34.855469 30.84375 L 34.855469 37.910156 C 33.523438 38.382812 32.566406 39.652344 32.566406 41.144531 C 32.566406 43.039062 34.105469 44.578125 36 44.578125 C 37.890625 44.578125 39.433594 43.039062 39.433594 41.144531 C 39.433594 39.652344 38.476562 38.382812 37.144531 37.910156 Z M 36 42.289062 C 35.367188 42.289062 34.855469 41.777344 34.855469 41.144531 C 34.855469 40.515625 35.367188 40 36 40 C 36.628906 40 37.144531 40.515625 37.144531 41.144531 C 37.144531 41.777344 36.628906 42.289062 36 42.289062 Z M 36 42.289062 " fill-opacity="1" fill-rule="nonzero"/></symbol><symbol id="share" viewBox="0 0 14 14"><g fill="currentColor">
<path fill-rule="evenodd" clip-rule="evenodd" d="M4.5672 0.999023H13V9.43182H10.5616V5.16163L2.72421 12.999L1 11.2748L8.83739 3.43742H4.5672V0.999023Z" fill="currentColor"/>
</g></symbol><symbol id="star" viewBox="0 0 27.4 26.2"><g style="enable-background:new 0 0 27.4 26.2;">
	<path class="starIcon__fill" d="M13.7,3.7l2,6.1c0.3,0.8,1,1.4,1.9,1.4h6.4l-5.2,3.7c-0.7,0.5-1,1.4-0.7,2.2l2,6.1l-5.2-3.7
		c-0.7-0.5-1.7-0.5-2.4,0l-5.2,3.7l2-6.1c0.3-0.8,0-1.7-0.7-2.2l-5.2-3.7h6.4c0.9,0,1.6-0.6,1.9-1.4L13.7,3.7z"/>
	<path class="starIcon__border" d="M21.9,25.8l-7.6-5.6c-0.4-0.3-0.8-0.3-1.2,0l-7.6,5.6l2.9-9c0.1-0.4,0-0.9-0.4-1.1l-7.6-5.6h9.4
		c0.4,0,0.8-0.3,1-0.7l2.9-9l2.9,9c0.1,0.4,0.5,0.7,1,0.7H27l-7.6,5.6c-0.4,0.3-0.5,0.7-0.4,1.1L21.9,25.8z M6.5,12.1l2.7,1.9
		c1.1,0.8,1.5,2.1,1.1,3.4l-1,3.1l2.7-1.9c1.1-0.8,2.5-0.8,3.5,0l2.7,1.9l-1-3.1c-0.4-1.2,0-2.6,1.1-3.4l2.7-1.9h-3.3
		c-1.3,0-2.5-0.8-2.9-2.1l-1-3.1l-1,3.1c-0.4,1.2-1.5,2.1-2.9,2.1H6.5z"/>
</g></symbol><symbol id="timer" viewBox="0 0 15 18"><g fill="currentColor">
<path d="M13.7676 5.78466L13.9283 5.62395C14.5711 4.98112 14.5711 3.96365 13.9283 3.37405C13.2854 2.78445 12.268 2.73123 11.6784 3.37405L11.5177 3.53476C10.7674 3.05264 9.96383 2.73122 9.10707 2.51729V0.696289H5.89293V2.46407C2.51809 3.21437 0 6.21355 0 9.80336C0 13.9285 3.37485 17.3034 7.5 17.3034C11.6252 17.3034 15 13.9285 15 9.80336C14.9468 8.30277 14.5179 6.90961 13.7676 5.78466ZM7.44677 15.1599C4.50082 15.1599 2.09022 12.7493 2.09022 9.80336C2.09022 6.85741 4.50082 4.4468 7.44677 4.4468C10.3927 4.4468 12.8033 6.85741 12.8033 9.80336C12.8033 12.7493 10.3927 15.1599 7.44677 15.1599Z" fill="currentColor"/>
<path d="M10.5533 10.713L8.25014 9.31987V8.73127C8.25014 8.30237 7.8755 7.92773 7.4466 7.92773C7.01771 7.92773 6.64307 8.30237 6.64307 8.73127V10.2309L9.6965 12.0519C9.80397 12.1051 9.96469 12.1593 10.1254 12.1593C10.3936 12.1593 10.6607 11.9986 10.8214 11.7847C11.0354 11.4633 10.9289 10.9269 10.5533 10.713V10.713Z" fill="currentColor"/>
<path d="M7.98246 5.51704C7.98246 6.23117 6.91174 6.23117 6.91174 5.51704C6.91174 4.80291 7.98246 4.80291 7.98246 5.51704Z" fill="currentColor"/>
<path d="M3.69758 9.8022C3.69758 10.5163 2.62585 10.5163 2.62585 9.8022C2.62585 9.08807 3.69758 9.08807 3.69758 9.8022Z" fill="currentColor"/>
<path d="M7.98234 14.0883C7.98234 14.8025 6.91162 14.8025 6.91162 14.0883C6.91162 13.3742 7.98234 13.3742 7.98234 14.0883Z" fill="currentColor"/>
<path d="M12.2684 9.8022C12.2684 10.5163 11.1967 10.5163 11.1967 9.8022C11.1967 9.08807 12.2684 9.08807 12.2684 9.8022Z" fill="currentColor"/>
</g></symbol><symbol id="trash" viewBox="0 0 13 17"><g fill="currentColor">
<path fill-rule="evenodd" clip-rule="evenodd" d="M2.53 15.7352L3.32414 14.941C3.54532 15.1622 3.84442 15.2861 4.15687 15.2861H8.84303C9.15549 15.2861 9.45461 15.1622 9.67577 14.941C9.86057 14.7562 9.97859 14.5143 10.0112 14.2552L11.0696 5.78619H1.93021L2.98856 14.2552C3.02122 14.5143 3.13923 14.7562 3.32403 14.941L2.53 15.7352ZM4.15687 16.6429H8.84303C9.51546 16.6429 10.1597 16.3764 10.6347 15.9007C11.034 15.5021 11.2878 14.9826 11.3576 14.423L12.5688 4.73376C12.5889 4.57196 12.4627 4.42871 12.2994 4.42871H0.700469C0.537189 4.42871 0.411023 4.57195 0.431049 4.73376L1.6423 14.423C1.71207 14.9826 1.96589 15.5021 2.36445 15.9007C2.84019 16.3764 3.48441 16.6429 4.15684 16.6429H4.15687Z" fill="currentColor"/>
<path fill-rule="evenodd" clip-rule="evenodd" d="M4.76395 7.48259C5.13802 7.46106 5.45862 7.7468 5.48015 8.12161L5.75179 12.8716C5.77332 13.2457 5.48758 13.5663 5.11351 13.5878C4.73944 13.6093 4.41807 13.3229 4.3973 12.9488L4.12492 8.19879C4.1034 7.82472 4.38913 7.50411 4.76395 7.48259ZM8.2419 7.48259C8.61597 7.50411 8.90171 7.82474 8.88018 8.19879L8.60854 12.9488C8.58702 13.3229 8.26639 13.6093 7.89234 13.5878C7.51828 13.5663 7.23178 13.2457 7.25331 12.8716L7.52569 8.12161C7.54722 7.7468 7.86784 7.46106 8.2419 7.48259Z" fill="currentColor"/>
<path fill-rule="evenodd" clip-rule="evenodd" d="M1.41675 2.43886C1.41675 2.06405 1.72105 1.75977 2.09585 1.75977H10.9101C11.2842 1.75977 11.5885 2.06407 11.5885 2.43886C11.5885 2.81368 11.2842 3.11722 10.9101 3.11722H2.09585C1.72103 3.11722 1.41675 2.81366 1.41675 2.43886Z" fill="currentColor"/>
<path fill-rule="evenodd" clip-rule="evenodd" d="M6.50384 3.07159C6.12903 3.07233 5.82475 2.76877 5.824 2.39398L5.82178 1.03726C5.82104 0.662449 6.12384 0.358164 6.49865 0.357423C6.87347 0.356681 7.17775 0.659485 7.17849 1.0343L7.18146 2.39175C7.1822 2.76657 6.87864 3.07085 6.50385 3.07159H6.50384Z" fill="currentColor"/>
</g></symbol><symbol id="twitter" viewBox="0 0 32 32"><path d="M24.325 3h4.411l-9.636 11.013 11.336 14.987h-8.876l-6.952-9.089-7.955 9.089h-4.413l10.307-11.78-10.875-14.22h9.101l6.284 8.308zM22.777 26.36h2.444l-15.776-20.859h-2.623z" fill="currentColor"/></symbol><symbol id="youtube" viewBox="0 0 20 15"><path d="M17.82,.71c.86,.23,1.54,.91,1.77,1.77,.42,1.56,.42,4.81,.42,4.81,0,0,0,3.25-.42,4.81-.23,.86-.91,1.54-1.77,1.77-1.56,.42-7.81,.42-7.81,.42,0,0-6.25,0-7.81-.42-.86-.23-1.54-.91-1.77-1.77-.42-1.56-.42-4.81-.42-4.81,0,0,0-3.25,.42-4.81,.23-.86,.91-1.54,1.77-1.77,1.56-.42,7.81-.42,7.81-.42,0,0,6.25,0,7.82,.42Zm-4.62,6.58l-5.2,3V4.3l5.2,3Z" fill="currentColor" fill-rule="evenodd"/></symbol></svg>