<svg xmlns="http://www.w3.org/2000/svg" viewBox="0 0 512 512">
  <path fill="#ffffff" d="M56 48h96c4.4 0 8 3.6 8 8v96c0 4.4-3.6 8-8 8H56c-4.4 0-8-3.6-8-8V56c0-4.4 3.6-8 8-8zm152 0h96c4.4 0 8 3.6 8 8v96c0 4.4-3.6 8-8 8h-96c-4.4 0-8-3.6-8-8V56c0-4.4 3.6-8 8-8zm152 0h96c4.4 0 8 3.6 8 8v96c0 4.4-3.6 8-8 8h-96c-4.4 0-8-3.6-8-8V56c0-4.4 3.6-8 8-8zM56 200h96c4.4 0 8 3.6 8 8v96c0 4.4-3.6 8-8 8H56c-4.4 0-8-3.6-8-8v-96c0-4.4 3.6-8 8-8zm152 0h96c4.4 0 8 3.6 8 8v96c0 4.4-3.6 8-8 8h-96c-4.4 0-8-3.6-8-8v-96c0-4.4 3.6-8 8-8zm152 0h96c4.4 0 8 3.6 8 8v96c0 4.4-3.6 8-8 8h-96c-4.4 0-8-3.6-8-8v-96c0-4.4 3.6-8 8-8zM56 352h96c4.4 0 8 3.6 8 8v96c0 4.4-3.6 8-8 8H56c-4.4 0-8-3.6-8-8v-96c0-4.4 3.6-8 8-8zm152 0h96c4.4 0 8 3.6 8 8v96c0 4.4-3.6 8-8 8h-96c-4.4 0-8-3.6-8-8v-96c0-4.4 3.6-8 8-8zm152 0h96c4.4 0 8 3.6 8 8v96c0 4.4-3.6 8-8 8h-96c-4.4 0-8-3.6-8-8v-96c0-4.4 3.6-8 8-8z"/>
</svg>